<svg xmlns="http://www.w3.org/2000/svg" width="400" height="400" viewBox="0 0 400 400">
  <!-- Background Circle for Vintage Frame -->
  <circle cx="200" cy="200" r="190" fill="#f5e6cc" stroke="#4a3728" stroke-width="8"/>
  
  <!-- Eagle Body -->
  <path d="M200 280 C180 280, 160 260, 160 240 C160 220, 180 200, 200 200 C220 200, 240 220, 240 240 C240 260, 220 280, 200 280 Z" fill="#8b5e3c" stroke="#4a3728" stroke-width="4"/>
  
  <!-- Left Wing -->
  <path d="M160 240 L120 200 C100 180, 80 180, 60 200 C40 220, 40 240, 60 260 L120 260 Z" fill="#8b5e3c" stroke="#4a3728" stroke-width="4"/>
  
  <!-- Right Wing -->
  <path d="M240 240 L280 200 C300 180, 320 180, 340 200 C360 220, 360 240, 340 260 L280 260 Z" fill="#8b5e3c" stroke="#4a3728" stroke-width="4"/>
  
  <!-- Head -->
  <circle cx="200" cy="180" r="30" fill="#f5e6cc" stroke="#4a3728" stroke-width="4"/>
  
  <!-- Beak -->
  <path d="M200 180 L220 190 C225 195, 220 200, 215 200 L200 190 Z" fill="#d4a017" stroke="#4a3728" stroke-width="2"/>
  
  <!-- Eye -->
  <circle cx="195" cy="175" r="5" fill="#4a3728"/>
  
  <!-- Tail -->
  <path d="M180 280 L200 320 L220 280 Z" fill="#8b5e3c" stroke="#4a3728" stroke-width="4"/>
  
  <!-- Vintage Texture (Crosshatch Lines) -->
  <g opacity="0.3">
    <line x1="50" y1="50" x2="350" y2="350" stroke="#4a3728" stroke-width="1"/>
    <line x1="50" y1="100" x2="350" y2="300" stroke="#4a3728" stroke-width="1"/>
    <line x1="50" y1="150" x2="350" y2="250" stroke="#4a3728" stroke-width="1"/>
    <line x1="350" y1="50" x2="50" y2="350" stroke="#4a3728" stroke-width="1"/>
    <line x1="350" y1="100" x2="50" y2="300" stroke="#4a3728" stroke-width="1"/>
    <line x1="350" y1="150" x2="50" y2="250" stroke="#4a3728" stroke-width="1"/>
  </g>
  
  <!-- Outer Decorative Border -->
  <circle cx="200" cy="200" r="180" fill="none" stroke="#d4a017" stroke-width="4" stroke-dasharray="10,5"/>
</svg>